<svg xmlns="http://www.w3.org/2000/svg" viewBox="0 0 320 320" fill="none" role="img" aria-label="Arcane sigil">
  <defs>
    <radialGradient id="sigilGlow" cx="50%" cy="50%" r="50%">
      <stop offset="0%" stop-color="#3FE8C4" stop-opacity="0.28"></stop>
      <stop offset="100%" stop-color="#3FE8C4" stop-opacity="0"></stop>
    </radialGradient>
    <filter id="sigGlow" x="-20%" y="-20%" width="140%" height="140%">
      <feGaussianBlur stdDeviation="2" result="b"></feGaussianBlur>
      <feMerge><feMergeNode in="b"></feMergeNode><feMergeNode in="SourceGraphic"></feMergeNode></feMerge>
    </filter>
  </defs>

  
  <circle cx="160" cy="160" r="158" fill="url(#sigilGlow)"></circle>

  
  <circle cx="160" cy="160" r="146" stroke="#1FCBA6" stroke-width="0.8" fill="none" opacity="0.35"></circle>
  <circle cx="160" cy="160" r="130" stroke="#3FE8C4" stroke-width="0.6" fill="none" stroke-dasharray="2 5" opacity="0.55"></circle>
  <circle cx="160" cy="160" r="110" stroke="#1FCBA6" stroke-width="0.5" fill="none" opacity="0.25"></circle>

  
  <g stroke="#D99A2B" stroke-width="1">
    <g transform="translate(160 160)">
      <g><line x1="0" y1="-146" x2="0" y2="-134"></line></g>
      <g transform="rotate(30)"><line x1="0" y1="-146" x2="0" y2="-138"></line></g>
      <g transform="rotate(60)"><line x1="0" y1="-146" x2="0" y2="-138"></line></g>
      <g transform="rotate(90)"><line x1="0" y1="-146" x2="0" y2="-134"></line></g>
      <g transform="rotate(120)"><line x1="0" y1="-146" x2="0" y2="-138"></line></g>
      <g transform="rotate(150)"><line x1="0" y1="-146" x2="0" y2="-138"></line></g>
      <g transform="rotate(180)"><line x1="0" y1="-146" x2="0" y2="-134"></line></g>
      <g transform="rotate(210)"><line x1="0" y1="-146" x2="0" y2="-138"></line></g>
      <g transform="rotate(240)"><line x1="0" y1="-146" x2="0" y2="-138"></line></g>
      <g transform="rotate(270)"><line x1="0" y1="-146" x2="0" y2="-134"></line></g>
      <g transform="rotate(300)"><line x1="0" y1="-146" x2="0" y2="-138"></line></g>
      <g transform="rotate(330)"><line x1="0" y1="-146" x2="0" y2="-138"></line></g>
    </g>
  </g>

  
  <g stroke="#3FE8C4" stroke-width="0.5" opacity="0.25">
    <line x1="160" y1="22" x2="160" y2="90"></line>
    <line x1="160" y1="230" x2="160" y2="298"></line>
    <line x1="22" y1="160" x2="90" y2="160"></line>
    <line x1="230" y1="160" x2="298" y2="160"></line>
  </g>

  
  <g transform="translate(160 160)" filter="url(#sigGlow)">
    
    <path d="M0 -42 L30 40 L12 40 L0 4 L-12 40 L-30 40 Z" fill="#1FCBA6" opacity="0.3"></path>
    
    <path d="M-4 -52&#xA;             C -2 -56, 2 -56, 4 -52&#xA;             L 36 38&#xA;             C 38 44, 34 50, 28 50&#xA;             L 22 50&#xA;             C 19 50, 17 48, 16 45&#xA;             L 0 -3&#xA;             L -16 45&#xA;             C -17 48, -19 50, -22 50&#xA;             L -28 50&#xA;             C -34 50, -38 44, -36 38&#xA;             Z" fill="#3FE8C4"></path>
  </g>
</svg>